<mxfile host="app.diagrams.net" agent="Mozilla/5.0 (Windows NT 10.0; Win64; x64) AppleWebKit/537.36 (KHTML, like Gecko) Chrome/131.0.0.0 Safari/537.36 Edg/131.0.0.0" version="24.9.0">
  <diagram name="Page-1" id="C-smzrAhDkTlSFxa6Orj">
    <mxGraphModel dx="1622" dy="419" grid="1" gridSize="10" guides="1" tooltips="1" connect="1" arrows="1" fold="1" page="1" pageScale="1" pageWidth="850" pageHeight="1100" math="0" shadow="0">
      <root>
        <mxCell id="0" />
        <mxCell id="1" parent="0" />
        <mxCell id="cDu__8VXXdu-nAQn2CDh-1" value="" style="edgeStyle=orthogonalEdgeStyle;rounded=0;orthogonalLoop=1;jettySize=auto;html=1;" edge="1" parent="1" source="cDu__8VXXdu-nAQn2CDh-2" target="cDu__8VXXdu-nAQn2CDh-4">
          <mxGeometry relative="1" as="geometry" />
        </mxCell>
        <mxCell id="cDu__8VXXdu-nAQn2CDh-2" value="&lt;font data-font-src=&quot;https://fonts.googleapis.com/css?family=Sarabun&quot; face=&quot;Sarabun&quot;&gt;Start&lt;/font&gt;" style="ellipse;whiteSpace=wrap;html=1;" vertex="1" parent="1">
          <mxGeometry x="-630.0000000000001" y="60" width="130" height="30" as="geometry" />
        </mxCell>
        <mxCell id="cDu__8VXXdu-nAQn2CDh-3" value="" style="edgeStyle=orthogonalEdgeStyle;rounded=0;orthogonalLoop=1;jettySize=auto;html=1;" edge="1" parent="1" source="cDu__8VXXdu-nAQn2CDh-4" target="cDu__8VXXdu-nAQn2CDh-6">
          <mxGeometry relative="1" as="geometry" />
        </mxCell>
        <mxCell id="cDu__8VXXdu-nAQn2CDh-4" value="กำหนดตัวแปร input" style="rounded=0;whiteSpace=wrap;html=1;" vertex="1" parent="1">
          <mxGeometry x="-630.0000000000001" y="130" width="130" height="40" as="geometry" />
        </mxCell>
        <mxCell id="cDu__8VXXdu-nAQn2CDh-5" value="" style="edgeStyle=orthogonalEdgeStyle;rounded=0;orthogonalLoop=1;jettySize=auto;html=1;" edge="1" parent="1" source="cDu__8VXXdu-nAQn2CDh-6">
          <mxGeometry relative="1" as="geometry">
            <mxPoint x="-565" y="290" as="targetPoint" />
          </mxGeometry>
        </mxCell>
        <mxCell id="cDu__8VXXdu-nAQn2CDh-6" value="กรอกค่า input" style="shape=parallelogram;perimeter=parallelogramPerimeter;whiteSpace=wrap;html=1;fixedSize=1;" vertex="1" parent="1">
          <mxGeometry x="-630.0000000000001" y="210" width="130" height="40" as="geometry" />
        </mxCell>
        <mxCell id="cDu__8VXXdu-nAQn2CDh-11" value="" style="edgeStyle=orthogonalEdgeStyle;rounded=0;orthogonalLoop=1;jettySize=auto;html=1;" edge="1" parent="1" source="cDu__8VXXdu-nAQn2CDh-7" target="cDu__8VXXdu-nAQn2CDh-10">
          <mxGeometry relative="1" as="geometry" />
        </mxCell>
        <mxCell id="cDu__8VXXdu-nAQn2CDh-15" value="" style="edgeStyle=orthogonalEdgeStyle;rounded=0;orthogonalLoop=1;jettySize=auto;html=1;" edge="1" parent="1" source="cDu__8VXXdu-nAQn2CDh-7" target="cDu__8VXXdu-nAQn2CDh-13">
          <mxGeometry relative="1" as="geometry" />
        </mxCell>
        <mxCell id="cDu__8VXXdu-nAQn2CDh-7" value="input1&lt;div&gt;มากกว่า 0 หรือไม่&lt;/div&gt;" style="rhombus;whiteSpace=wrap;html=1;" vertex="1" parent="1">
          <mxGeometry x="-631.67" y="290" width="133.33" height="100" as="geometry" />
        </mxCell>
        <mxCell id="cDu__8VXXdu-nAQn2CDh-8" value="&lt;font data-font-src=&quot;https://fonts.googleapis.com/css?family=Sarabun&quot; face=&quot;Sarabun&quot;&gt;End&lt;/font&gt;" style="ellipse;whiteSpace=wrap;html=1;" vertex="1" parent="1">
          <mxGeometry x="-630.0000000000001" y="780" width="130" height="30" as="geometry" />
        </mxCell>
        <mxCell id="cDu__8VXXdu-nAQn2CDh-27" value="" style="edgeStyle=orthogonalEdgeStyle;rounded=0;orthogonalLoop=1;jettySize=auto;html=1;" edge="1" parent="1" source="cDu__8VXXdu-nAQn2CDh-9" target="cDu__8VXXdu-nAQn2CDh-8">
          <mxGeometry relative="1" as="geometry" />
        </mxCell>
        <mxCell id="cDu__8VXXdu-nAQn2CDh-9" value="" style="ellipse;whiteSpace=wrap;html=1;aspect=fixed;" vertex="1" parent="1">
          <mxGeometry x="-577.5" y="720" width="25" height="25" as="geometry" />
        </mxCell>
        <mxCell id="cDu__8VXXdu-nAQn2CDh-24" style="edgeStyle=orthogonalEdgeStyle;rounded=0;orthogonalLoop=1;jettySize=auto;html=1;entryX=0.5;entryY=0;entryDx=0;entryDy=0;" edge="1" parent="1" source="cDu__8VXXdu-nAQn2CDh-10" target="cDu__8VXXdu-nAQn2CDh-22">
          <mxGeometry relative="1" as="geometry" />
        </mxCell>
        <mxCell id="cDu__8VXXdu-nAQn2CDh-10" value="พิม Positive" style="shape=parallelogram;perimeter=parallelogramPerimeter;whiteSpace=wrap;html=1;fixedSize=1;" vertex="1" parent="1">
          <mxGeometry x="-425.0000000000001" y="320" width="130" height="40" as="geometry" />
        </mxCell>
        <mxCell id="cDu__8VXXdu-nAQn2CDh-12" value="" style="edgeStyle=orthogonalEdgeStyle;rounded=0;orthogonalLoop=1;jettySize=auto;html=1;" edge="1" source="cDu__8VXXdu-nAQn2CDh-13" target="cDu__8VXXdu-nAQn2CDh-14" parent="1">
          <mxGeometry relative="1" as="geometry" />
        </mxCell>
        <mxCell id="cDu__8VXXdu-nAQn2CDh-21" value="" style="edgeStyle=orthogonalEdgeStyle;rounded=0;orthogonalLoop=1;jettySize=auto;html=1;" edge="1" parent="1" source="cDu__8VXXdu-nAQn2CDh-13" target="cDu__8VXXdu-nAQn2CDh-20">
          <mxGeometry relative="1" as="geometry" />
        </mxCell>
        <mxCell id="cDu__8VXXdu-nAQn2CDh-13" value="input1&lt;div&gt;น้อยกว่า 0 หรือไม่&lt;/div&gt;" style="rhombus;whiteSpace=wrap;html=1;" vertex="1" parent="1">
          <mxGeometry x="-631.67" y="430" width="133.33" height="100" as="geometry" />
        </mxCell>
        <mxCell id="cDu__8VXXdu-nAQn2CDh-23" value="" style="edgeStyle=orthogonalEdgeStyle;rounded=0;orthogonalLoop=1;jettySize=auto;html=1;" edge="1" parent="1" source="cDu__8VXXdu-nAQn2CDh-14" target="cDu__8VXXdu-nAQn2CDh-22">
          <mxGeometry relative="1" as="geometry" />
        </mxCell>
        <mxCell id="cDu__8VXXdu-nAQn2CDh-14" value="พิม Negative" style="shape=parallelogram;perimeter=parallelogramPerimeter;whiteSpace=wrap;html=1;fixedSize=1;" vertex="1" parent="1">
          <mxGeometry x="-425.0000000000001" y="460" width="130" height="40" as="geometry" />
        </mxCell>
        <mxCell id="cDu__8VXXdu-nAQn2CDh-16" value="T" style="text;html=1;align=center;verticalAlign=middle;resizable=0;points=[];autosize=1;strokeColor=none;fillColor=none;" vertex="1" parent="1">
          <mxGeometry x="-510" y="310" width="30" height="30" as="geometry" />
        </mxCell>
        <mxCell id="cDu__8VXXdu-nAQn2CDh-17" value="F" style="text;html=1;align=center;verticalAlign=middle;resizable=0;points=[];autosize=1;strokeColor=none;fillColor=none;" vertex="1" parent="1">
          <mxGeometry x="-560" y="380" width="30" height="30" as="geometry" />
        </mxCell>
        <mxCell id="cDu__8VXXdu-nAQn2CDh-18" value="T" style="text;html=1;align=center;verticalAlign=middle;resizable=0;points=[];autosize=1;strokeColor=none;fillColor=none;" vertex="1" parent="1">
          <mxGeometry x="-510" y="450" width="30" height="30" as="geometry" />
        </mxCell>
        <mxCell id="cDu__8VXXdu-nAQn2CDh-19" value="F" style="text;html=1;align=center;verticalAlign=middle;resizable=0;points=[];autosize=1;strokeColor=none;fillColor=none;" vertex="1" parent="1">
          <mxGeometry x="-560" y="520" width="30" height="30" as="geometry" />
        </mxCell>
        <mxCell id="cDu__8VXXdu-nAQn2CDh-26" value="" style="edgeStyle=orthogonalEdgeStyle;rounded=0;orthogonalLoop=1;jettySize=auto;html=1;" edge="1" parent="1" source="cDu__8VXXdu-nAQn2CDh-20" target="cDu__8VXXdu-nAQn2CDh-9">
          <mxGeometry relative="1" as="geometry" />
        </mxCell>
        <mxCell id="cDu__8VXXdu-nAQn2CDh-20" value="พิม&amp;nbsp;&lt;span style=&quot;color: rgb(17, 17, 17); font-family: noto-sans-thai, noto-sans, sans-serif; font-size: 16px; text-align: start; background-color: rgb(249, 249, 249);&quot;&gt;Zero&lt;/span&gt;" style="shape=parallelogram;perimeter=parallelogramPerimeter;whiteSpace=wrap;html=1;fixedSize=1;" vertex="1" parent="1">
          <mxGeometry x="-630.0000000000001" y="580" width="130" height="40" as="geometry" />
        </mxCell>
        <mxCell id="cDu__8VXXdu-nAQn2CDh-25" style="edgeStyle=orthogonalEdgeStyle;rounded=0;orthogonalLoop=1;jettySize=auto;html=1;entryX=1;entryY=0.5;entryDx=0;entryDy=0;" edge="1" parent="1" source="cDu__8VXXdu-nAQn2CDh-22" target="cDu__8VXXdu-nAQn2CDh-9">
          <mxGeometry relative="1" as="geometry">
            <Array as="points">
              <mxPoint x="-217" y="732" />
            </Array>
          </mxGeometry>
        </mxCell>
        <mxCell id="cDu__8VXXdu-nAQn2CDh-22" value="" style="ellipse;whiteSpace=wrap;html=1;aspect=fixed;" vertex="1" parent="1">
          <mxGeometry x="-230" y="467.5" width="25" height="25" as="geometry" />
        </mxCell>
      </root>
    </mxGraphModel>
  </diagram>
</mxfile>
